# xmcd CD database file
#
# Track frame offsets:
#	150
#	18906
#	35356
#	46385
#	58956
#	70631
#	86939
#	105892
#	117300
#
# Disc length: 1815 seconds
#
# Revision: 0
# Processed by: cddbd v1.5.2PL0 Copyright (c) Steve Scherf et al.
# Submitted via: CDex 1.51
#
DISCID=70071509
DTITLE=Various Artist - The Far East Swing
DYEAR=2006
DGENRE=Jazz
TTITLE0=Spyny Witty Swindle Daddy - My Funny Things
TTITLE1=Big Boy and Jumpin' Stars - Jumpin' From Six To Six
TTITLE2=Linda with Eitaro from LA - Why Don't You Do Right
TTITLE3=Speed Ball - 
TTITLE4=Little Fats and Swingin' Hot Shot Party - Lulu's Back In Town
TTITLE5=Jumpin' Cast Looser - Blue Bird Stomp On The Hill
TTITLE6=Burnie Jack Swing Band - Mambo 31
TTITLE7=Zip Gun Shakes - Heat Wave
TTITLE8=Hiroaki Yamazaki and Dynamics - Hanging Up dream
EXTD=YEAR: 2006
EXTT0=
EXTT1=
EXTT2=
EXTT3=
EXTT4=
EXTT5=
EXTT6=
EXTT7=
EXTT8=
PLAYORDER=
